<svg width="51" height="51" viewBox="0 0 51 51" fill="none" xmlns="http://www.w3.org/2000/svg">
<path d="M48.0223 14.5701L36.4397 2.97306C35.2647 1.80544 33.8047 0.965547 32.2047 0.536822C30.6047 0.108096 28.9203 0.105456 27.319 0.529163L11.4896 4.78122C9.8872 5.20785 8.42592 6.05003 7.25346 7.22259C6.08101 8.39516 5.23897 9.85653 4.81249 11.4589L0.565725 27.3081C0.13387 28.909 0.132416 30.5956 0.561508 32.1973C0.9906 33.799 1.83502 35.259 3.00938 36.4297L14.592 48.0267C15.767 49.1944 17.227 50.0342 18.827 50.463C20.427 50.8917 22.1114 50.8943 23.7127 50.4706L39.5421 46.2186C41.1445 45.7919 42.6058 44.9498 43.7782 43.7772C44.9507 42.6046 45.7927 41.1433 46.2192 39.5409L50.466 23.6917C50.8978 22.0908 50.8993 20.4042 50.4702 18.8025C50.0411 17.2008 49.1967 15.7408 48.0223 14.5701ZM25.8684 14.2162C26.0455 13.5553 26.4779 12.9918 27.0704 12.6497C27.663 12.3076 28.3672 12.2149 29.0281 12.392C29.689 12.5691 30.2525 13.0014 30.5946 13.594C30.9368 14.1866 31.0295 14.8908 30.8524 15.5517L27.7408 27.1644C27.5637 27.8253 27.1313 28.3889 26.5387 28.731C25.9462 29.0731 25.242 29.1658 24.581 28.9887C23.9201 28.8116 23.3566 28.3792 23.0145 27.7867C22.6724 27.1941 22.5797 26.4899 22.7568 25.829L25.8684 14.2162ZM22.0036 38.6078C21.3886 38.443 20.8361 38.0998 20.4158 37.6215C19.9955 37.1432 19.7262 36.5512 19.6419 35.9201C19.5575 35.289 19.6619 34.647 19.9418 34.0751C20.2217 33.5033 20.6647 33.027 21.2148 32.7065C21.7649 32.3859 22.3977 32.2354 23.0332 32.2739C23.6688 32.3123 24.2787 32.5381 24.7862 32.9227C25.2936 33.3072 25.6759 33.8334 25.8848 34.4349C26.0937 35.0364 26.1198 35.6862 25.9599 36.3026C25.8531 36.7146 25.6657 37.1014 25.4085 37.4407C25.1514 37.7799 24.8297 38.0649 24.4619 38.2792C24.0941 38.4935 23.6875 38.6329 23.2656 38.6893C22.8437 38.7457 22.4148 38.718 22.0036 38.6078Z" fill="url(#paint0_linear_265_1924)"/>
<defs>
<linearGradient id="paint0_linear_265_1924" x1="32.2047" y1="0.536822" x2="18.827" y2="50.463" gradientUnits="userSpaceOnUse">
<stop stop-color="#EF600D"/>
<stop offset="1" stop-color="#FF8C26"/>
</linearGradient>
</defs>
</svg>
