<svg width="106" height="106" viewBox="0 0 106 106" fill="none" xmlns="http://www.w3.org/2000/svg">
<g filter="url(#filter0_d_2082_637)">
<rect x="8" y="7" width="90" height="90" rx="45" fill="#191717"/>
<path d="M49.4671 48.4658C48.6597 49.269 48.2039 50.3596 48.1997 51.4985C48.1997 52.6389 48.6527 53.7326 49.4591 54.539C50.2656 55.3454 51.3593 55.7984 52.4997 55.7984C53.6385 55.7942 54.7292 55.3385 55.5323 54.5311" stroke="white" stroke-width="3.39474" stroke-linecap="round" stroke-linejoin="round"/>
<path d="M52.5011 38.6011C49.9497 38.6011 47.4556 39.3576 45.3342 40.7751C43.2128 42.1926 41.5594 44.2073 40.583 46.5645C39.6067 48.9216 39.3512 51.5154 39.8489 54.0177C40.3467 56.5201 41.5753 58.8186 43.3794 60.6227C45.1835 62.4268 47.4821 63.6555 49.9844 64.1532C52.4868 64.6509 55.0805 64.3955 57.4377 63.4191C59.7949 62.4427 61.8096 60.7893 63.227 58.6679C64.6445 56.5465 65.4011 54.0524 65.4011 51.5011" stroke="white" stroke-width="3.39474" stroke-linecap="round" stroke-linejoin="round"/>
<path d="M52.5 30C48.2477 30 44.0909 31.261 40.5552 33.6234C37.0196 35.9859 34.2639 39.3437 32.6366 43.2723C31.0093 47.2009 30.5835 51.5238 31.4131 55.6944C32.2427 59.865 34.2904 63.696 37.2972 66.7028C40.304 69.7096 44.135 71.7573 48.3056 72.5869C52.4762 73.4165 56.7991 72.9907 60.7277 71.3634C64.6563 69.7361 68.0141 66.9804 70.3766 63.4448C72.739 59.9091 74 55.7523 74 51.5M60.4776 43.5246L54.65 49.35" stroke="white" stroke-width="3.39474" stroke-linecap="round" stroke-linejoin="round"/>
<path d="M72.7316 37.5675L65.3989 38.5995L66.4309 31.2669C66.4385 31.1817 66.4205 31.0962 66.3792 31.0213C66.338 30.9465 66.2753 30.8856 66.1993 30.8464C66.1233 30.8073 66.0373 30.7918 65.9524 30.8018C65.8675 30.8118 65.7874 30.8468 65.7226 30.9025L60.8613 35.7389C60.362 36.2418 59.9947 36.8604 59.7922 37.5395C59.5896 38.2186 59.5581 38.9373 59.7003 39.6315L60.4743 43.5242L64.3669 44.2959C65.0612 44.4381 65.7798 44.4066 66.459 44.204C67.1381 44.0015 67.7566 43.6342 68.2596 43.1349L73.0937 38.2759C73.1495 38.2109 73.1847 38.1306 73.1947 38.0455C73.2046 37.9603 73.1889 37.8741 73.1494 37.798C73.11 37.7218 73.0488 37.6592 72.9735 37.6181C72.8982 37.5771 72.8124 37.5595 72.727 37.5675" stroke="white" stroke-width="3.39474" stroke-linecap="round" stroke-linejoin="round"/>
</g>
<defs>
<filter id="filter0_d_2082_637" x="0" y="0" width="106" height="106" filterUnits="userSpaceOnUse" color-interpolation-filters="sRGB">
<feFlood flood-opacity="0" result="BackgroundImageFix"/>
<feColorMatrix in="SourceAlpha" type="matrix" values="0 0 0 0 0 0 0 0 0 0 0 0 0 0 0 0 0 0 127 0" result="hardAlpha"/>
<feOffset dy="1"/>
<feGaussianBlur stdDeviation="4"/>
<feComposite in2="hardAlpha" operator="out"/>
<feColorMatrix type="matrix" values="0 0 0 0 0 0 0 0 0 0 0 0 0 0 0 0 0 0 0.25 0"/>
<feBlend mode="normal" in2="BackgroundImageFix" result="effect1_dropShadow_2082_637"/>
<feBlend mode="normal" in="SourceGraphic" in2="effect1_dropShadow_2082_637" result="shape"/>
</filter>
</defs>
</svg>
