<svg width="106" height="106" viewBox="0 0 106 106" fill="none" xmlns="http://www.w3.org/2000/svg">
<g filter="url(#filter0_d_2082_643)">
<rect x="8" y="7" width="90" height="90" rx="45" fill="#191717"/>
<path d="M60.761 75.0003H45.5683V52.7937C45.5652 52.2102 45.6811 51.6319 45.9093 51.0923C46.1375 50.5526 46.4734 50.0623 46.8977 49.6497C47.322 49.2371 47.8262 48.9104 48.3812 48.6885C48.9361 48.4666 49.5308 48.3539 50.1308 48.357H56.1985C56.7985 48.3539 57.3932 48.4666 57.9482 48.6885C58.5031 48.9104 59.0074 49.2371 59.4316 49.6497C59.8559 50.0623 60.1919 50.5526 60.4201 51.0923C60.6483 51.6319 60.7641 52.2102 60.761 52.7937V75.0003ZM43.2165 57.2304H34.8911C34.292 57.2304 33.6987 57.3452 33.1451 57.5682C32.5916 57.7911 32.0886 58.1179 31.6649 58.5299C31.2413 58.9419 30.9052 59.431 30.6759 59.9693C30.4466 60.5076 30.3286 61.0845 30.3286 61.6672V75.0003H43.2165V57.2304ZM60.761 63.8855V75.0003V63.8855ZM71.4382 63.8855H63.1128V75.0003H76.0007V68.3223C76.0007 67.1456 75.5201 66.0171 74.6644 65.185C73.8088 64.353 72.6483 63.8855 71.4382 63.8855V63.8855ZM58.5503 41.9534L58.3387 39.6665C58.3127 39.4184 58.3412 39.1678 58.4223 38.9312C58.5034 38.6947 58.6352 38.4776 58.809 38.2943L60.4553 36.579C60.6678 36.3489 60.8151 36.069 60.8828 35.7667C60.9505 35.4645 60.9362 35.1504 60.8413 34.8551C60.7464 34.5599 60.5742 34.2937 60.3416 34.0828C60.109 33.8718 59.824 33.7232 59.5146 33.6517L57.1628 33.1257C56.9101 33.0737 56.6721 32.9691 56.4651 32.8191C56.258 32.669 56.0868 32.4772 55.9633 32.2567L54.7874 30.2213C54.6295 29.9501 54.4005 29.7246 54.1236 29.5677C53.8468 29.4108 53.5321 29.3281 53.2117 29.3281C52.8913 29.3281 52.5766 29.4108 52.2998 29.5677C52.023 29.7246 51.7939 29.9501 51.636 30.2213L50.4131 32.2338C50.2809 32.4498 50.104 32.6366 49.8934 32.7823C49.6828 32.928 49.4433 33.0294 49.1901 33.08L46.8383 33.5374C46.5417 33.6064 46.2674 33.7462 46.0403 33.9442C45.8132 34.1422 45.6405 34.3922 45.5378 34.6714C45.4351 34.9507 45.4056 35.2505 45.452 35.5436C45.4984 35.8368 45.6192 36.114 45.8035 36.3503L47.4027 38.1113C47.5778 38.2931 47.7087 38.5107 47.786 38.7482C47.8634 38.9856 47.8851 39.2369 47.8496 39.4835L47.5674 41.7705C47.5288 42.0782 47.5744 42.3904 47.6996 42.6755C47.8248 42.9606 48.0252 43.2085 48.2806 43.3941C48.5359 43.5798 48.8371 43.6966 49.1537 43.7327C49.4704 43.7689 49.7912 43.7231 50.0838 43.6001L52.2945 42.6853C52.5315 42.5832 52.7879 42.5304 53.0471 42.5304C53.3063 42.5304 53.5627 42.5832 53.7997 42.6853L55.9868 43.6915C56.2738 43.8202 56.5903 43.8736 56.905 43.8465C57.2197 43.8193 57.5216 43.7126 57.7808 43.5369C58.04 43.3612 58.2473 43.1226 58.3823 42.8448C58.5173 42.567 58.5752 42.2597 58.5503 41.9534Z" fill="white"/>
</g>
<defs>
<filter id="filter0_d_2082_643" x="0" y="0" width="106" height="106" filterUnits="userSpaceOnUse" color-interpolation-filters="sRGB">
<feFlood flood-opacity="0" result="BackgroundImageFix"/>
<feColorMatrix in="SourceAlpha" type="matrix" values="0 0 0 0 0 0 0 0 0 0 0 0 0 0 0 0 0 0 127 0" result="hardAlpha"/>
<feOffset dy="1"/>
<feGaussianBlur stdDeviation="4"/>
<feComposite in2="hardAlpha" operator="out"/>
<feColorMatrix type="matrix" values="0 0 0 0 0 0 0 0 0 0 0 0 0 0 0 0 0 0 0.25 0"/>
<feBlend mode="normal" in2="BackgroundImageFix" result="effect1_dropShadow_2082_643"/>
<feBlend mode="normal" in="SourceGraphic" in2="effect1_dropShadow_2082_643" result="shape"/>
</filter>
</defs>
</svg>
