<svg width="106" height="106" viewBox="0 0 106 106" fill="none" xmlns="http://www.w3.org/2000/svg">
<g filter="url(#filter0_d_2082_646)">
<rect x="8" y="7" width="90" height="90" rx="45" fill="#191717"/>
<path d="M51.1939 40.1814L50.6218 40.7603C50.8153 40.9515 50.9692 41.1791 51.0745 41.43C51.1798 41.6809 51.2345 41.9502 51.2354 42.2223C51.2363 42.4945 51.1834 42.7641 51.0798 43.0158C50.9763 43.2673 50.8241 43.4958 50.6321 43.6882L51.1939 40.1814ZM51.1939 40.1814L50.6141 40.7526L48.696 38.8059C48.4858 38.5983 48.3195 38.3504 48.2073 38.0771C48.0949 37.8035 48.0389 37.5101 48.0426 37.2145V34.4546C48.041 34.1832 47.9861 33.9148 47.8808 33.6647C47.7752 33.414 47.6213 33.1868 47.4277 32.9959C47.2341 32.805 47.0048 32.6543 46.7529 32.5523C46.501 32.4504 46.2315 32.3993 45.9598 32.4019L45.952 32.402V32.402H43.1914C42.8957 32.4056 42.6023 32.3496 42.3288 32.2371C42.0539 32.1241 41.8049 31.9565 41.5967 31.7445C41.596 31.7438 41.5953 31.7431 41.5947 31.7424L39.6645 29.7975C39.6641 29.7971 39.6638 29.7968 39.6634 29.7964C39.2766 29.4104 38.7528 29.1937 38.2067 29.1937C37.66 29.1937 37.1357 29.4108 36.7488 29.7975L36.745 29.8013L36.745 29.8013L34.7993 31.7203C34.5918 31.9307 34.344 32.0971 34.0707 32.2094C33.7971 32.3219 33.5037 32.378 33.208 32.3743H30.4496C30.1785 32.3758 29.9104 32.4308 29.6605 32.5361C29.4101 32.6416 29.183 32.7956 28.9922 32.9893C28.8014 33.1829 28.6507 33.4124 28.5488 33.6646C28.4469 33.9167 28.3957 34.1865 28.3984 34.4585L28.3984 34.4664H28.3984V37.2283C28.4021 37.5239 28.3461 37.8174 28.2337 38.0909C28.1208 38.3658 27.9534 38.6148 27.7415 38.8231L25.7954 40.7564C25.795 40.7568 25.7947 40.7571 25.7943 40.7575C25.4085 41.1444 25.1918 41.6688 25.1918 42.2155C25.1918 42.7628 25.4089 43.2876 25.7954 43.6747L25.7992 43.6785L25.7992 43.6785L27.7173 45.6252C27.9275 45.8328 28.0938 46.0807 28.2061 46.354C28.3184 46.6276 28.3744 46.921 28.3707 47.2167V49.9764C28.3723 50.2478 28.4272 50.5163 28.5325 50.7664C28.6381 51.017 28.792 51.2443 28.9856 51.4352C29.1792 51.6261 29.4085 51.7768 29.6604 51.8788C29.9123 51.9807 30.1818 52.0318 30.4535 52.0292L30.4614 52.0291V52.0291H33.2219C33.5176 52.0254 33.811 52.0815 34.0845 52.194C34.3588 52.3068 34.6074 52.4739 34.8154 52.6854L36.7627 54.6336C37.1495 55.0202 37.6739 55.2373 38.2205 55.2373C38.7671 55.2373 39.2915 55.0202 39.6783 54.6336L39.6801 54.6319L41.6129 52.7118C41.8206 52.501 42.0688 52.3342 42.3426 52.2216C42.6162 52.1092 42.9096 52.0531 43.2053 52.0568H45.9658C46.5128 52.0568 47.0375 51.8394 47.4244 51.4523C47.8113 51.0652 48.0287 50.5401 48.0287 49.9924V47.2305C48.0251 46.9348 48.0811 46.6414 48.1934 46.3678C48.3061 46.0935 48.4731 45.8448 48.6845 45.6368L50.6318 43.6885L51.1939 40.1814ZM41.9641 37.6647L41.9668 37.6621L42.5357 38.2441C42.7302 38.0497 42.9939 37.9406 43.2688 37.9406C43.5436 37.9406 43.8073 38.0497 44.0018 38.2441C44.0992 38.3416 44.1762 38.4575 44.2283 38.5852C44.2804 38.7128 44.3065 38.8495 44.3052 38.9873C44.304 39.1252 44.2752 39.2614 44.2208 39.388C44.1663 39.5146 44.0871 39.6291 43.988 39.7247M41.9641 37.6647C42.3108 37.3202 42.7798 37.1267 43.2688 37.1267C43.7595 37.1267 44.23 37.3216 44.5771 37.6684L44.5777 37.669C44.7514 37.843 44.8888 38.0499 44.9817 38.2775C45.0747 38.5052 45.1214 38.7491 45.1191 38.9949C45.1168 39.2408 45.0655 39.4837 44.9684 39.7096C44.8716 39.9345 44.7312 40.138 44.5553 40.3083L44.557 40.3066L43.988 39.7247M41.9641 37.6647L36.4891 43.0175L34.5218 41.0171C34.3562 40.8395 34.1572 40.6962 33.9361 40.5954C33.7101 40.4923 33.4656 40.4358 33.2172 40.4293C32.9688 40.4227 32.7217 40.4662 32.4905 40.5572C32.2593 40.6482 32.0488 40.7848 31.8715 40.9588C31.6943 41.1329 31.5538 41.3408 31.4586 41.5702C31.3634 41.7997 31.3153 42.0459 31.3171 42.2943C31.319 42.5427 31.3708 42.7882 31.4695 43.0162C31.5663 43.2397 31.7063 43.442 31.8813 43.6113M41.9641 37.6647L31.8813 43.6113M43.988 39.7247L44.553 40.3105M43.988 39.7247L37.197 46.3669C37.1012 46.4639 36.9871 46.5408 36.8612 46.5931C36.7353 46.6454 36.6003 46.672 36.464 46.6713C36.3268 46.6694 36.1914 46.6403 36.0656 46.5856C35.9398 46.531 35.826 46.452 35.7309 46.3531L44.553 40.3105M44.553 40.3105L37.7705 46.9444C37.5997 47.1159 37.3968 47.2519 37.1733 47.3447C36.9473 47.4386 36.7048 47.4863 36.4601 47.4852L36.4525 47.4851L36.4525 47.4851C36.2077 47.4817 35.966 47.4297 35.7415 47.3322C35.5188 47.2355 35.3173 47.096 35.1485 46.9216L31.8813 43.6113M44.553 40.3105L31.8813 43.6113" stroke="white" stroke-width="1.62772"/>
<path d="M80.704 50.847L77.7863 47.8859C77.5829 47.6865 77.4221 47.4477 77.3139 47.1842C77.2056 46.9206 77.1521 46.6378 77.1566 46.3528V42.1527C77.1538 41.5772 77.0375 41.008 76.8142 40.4777C76.591 39.9474 76.2652 39.4665 75.8556 39.0625C75.446 38.6586 74.9606 38.3396 74.4274 38.1238C73.8942 37.9081 73.3237 37.7999 72.7486 37.8055H68.5505C68.2657 37.8099 67.983 37.7564 67.7196 37.6481C67.4562 37.5398 67.2175 37.379 67.0182 37.1754L64.0796 34.2143C63.2609 33.3961 62.1511 32.9365 60.994 32.9365C59.8368 32.9365 58.727 33.3961 57.9084 34.2143L54.9487 37.1334C54.7494 37.337 54.5108 37.4978 54.2473 37.6061C53.9839 37.7144 53.7012 37.7679 53.4164 37.7635H49.2183C48.6432 37.7662 48.0743 37.8826 47.5443 38.106C47.0142 38.3294 46.5335 38.6553 46.1298 39.0651C45.726 39.4749 45.4072 39.9605 45.1916 40.494C44.9759 41.0274 44.8678 41.5983 44.8733 42.1737V46.3738C44.8778 46.6588 44.8243 46.9416 44.716 47.2052C44.6078 47.4687 44.447 47.7075 44.2436 47.9069L41.284 50.847C40.4662 51.6661 40.0068 52.7765 40.0068 53.9342C40.0068 55.0919 40.4662 56.2023 41.284 57.0213L44.2016 59.9824C44.4051 60.1819 44.5658 60.4206 44.6741 60.6842C44.7823 60.9478 44.8358 61.2306 44.8313 61.5155V65.7157C44.8341 66.2911 44.9504 66.8603 45.1737 67.3906C45.397 67.9209 45.7228 68.4019 46.1324 68.8058C46.542 69.2098 47.0273 69.5288 47.5605 69.7445C48.0937 69.9602 48.6642 70.0684 49.2393 70.0629H53.4374C53.7222 70.0584 54.0049 70.112 54.2683 70.2203C54.5317 70.3286 54.7704 70.4894 54.9697 70.6929L57.9294 73.6541C58.748 74.4722 59.8578 74.9318 61.015 74.9318C62.1721 74.9318 63.2819 74.4722 64.1005 73.6541L67.0392 70.7349C67.2385 70.5314 67.4772 70.3706 67.7406 70.2623C68.004 70.154 68.2867 70.1004 68.5715 70.1049H72.7696C73.9275 70.1049 75.038 69.6447 75.8568 68.8255C76.6756 68.0063 77.1356 66.8952 77.1356 65.7367V61.5365C77.1311 61.2516 77.1846 60.9688 77.2929 60.7052C77.4011 60.4416 77.5619 60.2029 77.7653 60.0034L80.7249 57.0423C81.1317 56.635 81.4539 56.1512 81.673 55.6189C81.8922 55.0865 82.0041 54.5161 82.0021 53.9403C82.0002 53.3646 81.8845 52.7949 81.6617 52.264C81.4389 51.7332 81.1134 51.2516 80.704 50.847V50.847ZM69.768 50.154L59.4617 60.2345C59.3163 60.3817 59.143 60.4984 58.952 60.5778C58.761 60.6571 58.556 60.6975 58.3492 60.6965C58.141 60.6936 57.9355 60.6494 57.7446 60.5664C57.5536 60.4835 57.381 60.3636 57.2367 60.2135L52.262 55.1732C52.109 55.0275 51.9868 54.8525 51.9029 54.6585C51.8189 54.4646 51.7748 54.2557 51.7732 54.0444C51.7716 53.833 51.8126 53.6235 51.8936 53.4284C51.9746 53.2332 52.0941 53.0563 52.2448 52.9083C52.3956 52.7602 52.5746 52.6441 52.7712 52.5667C52.9678 52.4894 53.1779 52.4524 53.3891 52.4579C53.6002 52.4635 53.8081 52.5116 54.0003 52.5992C54.1926 52.6869 54.3652 52.8123 54.5079 52.9681L58.3702 56.8953L67.564 47.9069C67.8591 47.6119 68.2593 47.4463 68.6765 47.4463C69.0936 47.4463 69.4938 47.6119 69.7889 47.9069C69.9367 48.0549 70.0536 48.2309 70.1326 48.4245C70.2117 48.6182 70.2514 48.8257 70.2495 49.0349C70.2475 49.244 70.2039 49.4508 70.1213 49.6429C70.0386 49.8351 69.9185 50.0088 69.768 50.154Z" fill="white"/>
</g>
<defs>
<filter id="filter0_d_2082_646" x="0" y="0" width="106" height="106" filterUnits="userSpaceOnUse" color-interpolation-filters="sRGB">
<feFlood flood-opacity="0" result="BackgroundImageFix"/>
<feColorMatrix in="SourceAlpha" type="matrix" values="0 0 0 0 0 0 0 0 0 0 0 0 0 0 0 0 0 0 127 0" result="hardAlpha"/>
<feOffset dy="1"/>
<feGaussianBlur stdDeviation="4"/>
<feComposite in2="hardAlpha" operator="out"/>
<feColorMatrix type="matrix" values="0 0 0 0 0 0 0 0 0 0 0 0 0 0 0 0 0 0 0.25 0"/>
<feBlend mode="normal" in2="BackgroundImageFix" result="effect1_dropShadow_2082_646"/>
<feBlend mode="normal" in="SourceGraphic" in2="effect1_dropShadow_2082_646" result="shape"/>
</filter>
</defs>
</svg>
