<svg width="106" height="107" viewBox="0 0 106 107" fill="none" xmlns="http://www.w3.org/2000/svg">
<g filter="url(#filter0_d_2082_652)">
<rect x="8" y="7.69238" width="90" height="90" rx="45" fill="#191717"/>
<path d="M58.8663 48.637L57.0772 46.845C56.9609 46.7242 56.8215 46.6281 56.6673 46.5624C56.513 46.4967 56.3472 46.4629 56.1796 46.4629C56.012 46.4629 55.8461 46.4967 55.6919 46.5624C55.5377 46.6281 55.3982 46.7242 55.2819 46.845L53.9355 48.1875L48.1008 54.0317L47.2094 56.729L46.8167 57.9029C46.7932 57.9736 46.7785 58.047 46.773 58.1214C46.773 58.1214 46.773 58.1651 46.773 58.1901C46.7697 58.2379 46.7697 58.2859 46.773 58.3337C46.773 58.3337 46.773 58.3836 46.773 58.4086C46.7859 58.4476 46.8026 58.4853 46.8229 58.521L46.8603 58.5897L46.9351 58.6896L46.985 58.7458L47.0909 58.8269L47.147 58.8644L47.3091 58.9331H47.3964C47.4605 58.9426 47.5256 58.9426 47.5896 58.9331V58.9331C47.6727 58.9338 47.7551 58.919 47.8327 58.8894L49.0047 58.496L51.6976 57.6032L57.5323 51.7589L58.8663 50.4352C58.987 50.3188 59.0829 50.1791 59.1485 50.0246C59.214 49.8701 59.2478 49.704 59.2478 49.5361C59.2478 49.3683 59.214 49.2021 59.1485 49.0477C59.0829 48.8932 58.987 48.7535 58.8663 48.637ZM48.2691 57.7842L47.9512 57.4658L48.5184 55.7675L49.9646 57.216L48.2691 57.7842ZM58.2429 49.7734L57.5635 50.4602L55.257 48.1875L55.9427 47.5069C55.9731 47.4746 56.0098 47.4491 56.0506 47.4319C56.0914 47.4147 56.1353 47.4062 56.1796 47.407C56.2229 47.4067 56.2657 47.4154 56.3054 47.4326C56.3451 47.4498 56.3808 47.4751 56.4102 47.5069L58.2055 49.2989C58.268 49.362 58.303 49.4473 58.303 49.5361C58.303 49.625 58.268 49.7103 58.2055 49.7734H58.2429Z" fill="white"/>
<path d="M45.6089 62.8358H59.4853V72.5908H38.2926C37.1219 72.5908 35.9992 72.1258 35.1713 71.298C34.3435 70.4701 33.8785 69.3474 33.8785 68.1767V43.3258H33.4151C32.2444 43.3258 31.1217 42.8608 30.2938 42.033C29.466 41.2052 29.001 40.0824 29.001 38.9117V37.985C29.001 36.8143 29.466 35.6915 30.2938 34.8637C31.1217 34.0359 32.2444 33.5709 33.4151 33.5709H33.8785V33.1075C33.8785 31.9368 34.3435 30.814 35.1713 29.9862C35.9992 29.1584 37.1219 28.6934 38.2926 28.6934H39.2193C39.799 28.6934 40.373 28.8075 40.9085 29.0294C41.4441 29.2512 41.9307 29.5763 42.3406 29.9862C42.7505 30.3961 43.0756 30.8827 43.2975 31.4183C43.5193 31.9538 43.6335 32.5278 43.6335 33.1075V60.8604C43.6335 61.3844 43.8416 61.8868 44.212 62.2573C44.5825 62.6277 45.0849 62.8358 45.6089 62.8358V62.8358ZM73.3618 62.8358H72.8984V37.985C72.8984 36.8143 72.4334 35.6915 71.6056 34.8637C70.7778 34.0359 69.655 33.5709 68.4843 33.5709H47.2916V43.3258H61.1681C61.692 43.3258 62.1944 43.534 62.5649 43.9044C62.9353 44.2749 63.1435 44.7773 63.1435 45.3012V73.0542C63.1435 74.2249 63.6085 75.3476 64.4363 76.1755C65.2641 77.0033 66.3869 77.4683 67.5576 77.4683H68.4843C69.655 77.4683 70.7778 77.0033 71.6056 76.1755C72.4334 75.3476 72.8984 74.2249 72.8984 73.0542V72.5908H73.3618C74.5325 72.5908 75.6553 72.1258 76.4831 71.298C77.3109 70.4701 77.7759 69.3474 77.7759 68.1767V67.25C77.7759 66.0793 77.3109 64.9565 76.4831 64.1287C75.6553 63.3009 74.5325 62.8358 73.3618 62.8358V62.8358Z" fill="white"/>
</g>
<defs>
<filter id="filter0_d_2082_652" x="0" y="0.692383" width="106" height="106" filterUnits="userSpaceOnUse" color-interpolation-filters="sRGB">
<feFlood flood-opacity="0" result="BackgroundImageFix"/>
<feColorMatrix in="SourceAlpha" type="matrix" values="0 0 0 0 0 0 0 0 0 0 0 0 0 0 0 0 0 0 127 0" result="hardAlpha"/>
<feOffset dy="1"/>
<feGaussianBlur stdDeviation="4"/>
<feComposite in2="hardAlpha" operator="out"/>
<feColorMatrix type="matrix" values="0 0 0 0 0 0 0 0 0 0 0 0 0 0 0 0 0 0 0.25 0"/>
<feBlend mode="normal" in2="BackgroundImageFix" result="effect1_dropShadow_2082_652"/>
<feBlend mode="normal" in="SourceGraphic" in2="effect1_dropShadow_2082_652" result="shape"/>
</filter>
</defs>
</svg>
