<svg width="106" height="107" viewBox="0 0 106 107" fill="none" xmlns="http://www.w3.org/2000/svg">
<g filter="url(#filter0_d_2082_657)">
<rect x="8" y="7.69336" width="90" height="90" rx="45" fill="#191717"/>
<path d="M63.0473 26.9189H42.1788C38.1875 26.9921 34.3844 28.6292 31.5879 31.478C28.7914 34.3267 27.2249 38.1595 27.2256 42.1514V62.4614C27.2249 66.4534 28.7914 70.2861 31.5879 73.1349C34.3844 75.9836 38.1875 77.6207 42.1788 77.6939H63.0473C67.0386 77.6207 70.8417 75.9836 73.6382 73.1349C76.4348 70.2861 78.0012 66.4534 78.0006 62.4614V42.1514C78.0012 38.1595 76.4348 34.3267 73.6382 31.478C70.8417 28.6292 67.0386 26.9921 63.0473 26.9189V26.9189ZM67.6171 52.3064C67.6171 52.8114 67.4165 53.2957 67.0594 53.6528C66.7023 54.0099 66.218 54.2105 65.713 54.2105C65.208 54.2105 64.7237 54.0099 64.3666 53.6528C64.0096 53.2957 63.8089 52.8114 63.8089 52.3064V49.7677L57.9444 56.1399C57.2522 56.9061 56.2926 57.3778 55.2632 57.4581C54.2337 57.5384 53.2126 57.2211 52.41 56.5715L48.5003 53.3727C48.4503 53.3314 48.3874 53.3089 48.3226 53.3089C48.2577 53.3089 48.1949 53.3314 48.1449 53.3727L42.0519 59.7196C41.8768 59.8992 41.6676 60.042 41.4365 60.1395C41.2054 60.2369 40.9572 60.2872 40.7063 60.2872C40.4555 60.2872 40.2073 60.2369 39.9762 60.1395C39.7451 60.042 39.5358 59.8992 39.3608 59.7196C39.007 59.3508 38.8095 58.8596 38.8095 58.3486C38.8095 57.8377 39.007 57.3465 39.3608 56.9777L45.4538 50.6309C46.1489 49.8974 47.0966 49.4554 48.1052 49.3941C49.1138 49.3328 50.108 49.6569 50.8867 50.3008L54.8218 53.4996C54.8692 53.5462 54.933 53.5722 54.9995 53.5722C55.0659 53.5722 55.1297 53.5462 55.1772 53.4996L61.3464 46.7212H58.3253C57.8484 46.6666 57.4084 46.4385 57.0889 46.0803C56.7694 45.7222 56.5928 45.259 56.5928 44.779C56.5928 44.2991 56.7694 43.8359 57.0889 43.4778C57.4084 43.1196 57.8484 42.8915 58.3253 42.8369H65.713C65.9664 42.8402 66.2166 42.8934 66.4495 42.9934C66.6823 43.0935 66.8931 43.2384 67.07 43.4199C67.2468 43.6015 67.3861 43.816 67.48 44.0514C67.5738 44.2868 67.6204 44.5383 67.6171 44.7917V52.3064Z" fill="white"/>
</g>
<defs>
<filter id="filter0_d_2082_657" x="0" y="0.693359" width="106" height="106" filterUnits="userSpaceOnUse" color-interpolation-filters="sRGB">
<feFlood flood-opacity="0" result="BackgroundImageFix"/>
<feColorMatrix in="SourceAlpha" type="matrix" values="0 0 0 0 0 0 0 0 0 0 0 0 0 0 0 0 0 0 127 0" result="hardAlpha"/>
<feOffset dy="1"/>
<feGaussianBlur stdDeviation="4"/>
<feComposite in2="hardAlpha" operator="out"/>
<feColorMatrix type="matrix" values="0 0 0 0 0 0 0 0 0 0 0 0 0 0 0 0 0 0 0.25 0"/>
<feBlend mode="normal" in2="BackgroundImageFix" result="effect1_dropShadow_2082_657"/>
<feBlend mode="normal" in="SourceGraphic" in2="effect1_dropShadow_2082_657" result="shape"/>
</filter>
</defs>
</svg>
