<svg width="106" height="107" viewBox="0 0 106 107" fill="none" xmlns="http://www.w3.org/2000/svg">
<g filter="url(#filter0_d_2082_660)">
<rect x="8" y="7.69336" width="90" height="90" rx="45" fill="#191717"/>
<path d="M63.6704 27.6943H43.2335C39.2155 27.6942 35.3601 29.2816 32.5071 32.1109C29.6541 34.9401 28.0345 38.782 28.001 42.7999V63.3637C28.0345 67.3816 29.6541 71.2235 32.5071 74.0528C35.3601 76.882 39.2155 78.4694 43.2335 78.4693H63.7973C67.7712 78.4032 71.5619 76.7865 74.3603 73.9644C77.1588 71.1422 78.7434 67.338 78.7759 63.3637V42.7999C78.7428 38.8039 77.1407 34.981 74.315 32.1553C71.4893 29.3296 67.6664 27.7275 63.6704 27.6943V27.6943ZM61.6648 43.5107H57.0189L53.6169 64.1508H58.0344C58.5394 64.1508 59.0237 64.3514 59.3807 64.7085C59.7378 65.0655 59.9384 65.5498 59.9384 66.0548C59.9384 66.5598 59.7378 67.0441 59.3807 67.4012C59.0237 67.7583 58.5394 67.9589 58.0344 67.9589H45.493C44.988 67.9589 44.5037 67.7583 44.1466 67.4012C43.7895 67.0441 43.5889 66.5598 43.5889 66.0548C43.5889 65.5498 43.7895 65.0655 44.1466 64.7085C44.5037 64.3514 44.988 64.1508 45.493 64.1508H49.758L53.16 43.5107H49.1234C48.6184 43.5107 48.1341 43.3101 47.777 42.9531C47.4199 42.596 47.2193 42.1117 47.2193 41.6067C47.2193 41.1017 47.4199 40.6174 47.777 40.2603C48.1341 39.9032 48.6184 39.7026 49.1234 39.7026H61.6648C62.1698 39.7026 62.6541 39.9032 63.0112 40.2603C63.3682 40.6174 63.5688 41.1017 63.5688 41.6067C63.5688 42.1117 63.3682 42.596 63.0112 42.9531C62.6541 43.3101 62.1698 43.5107 61.6648 43.5107V43.5107Z" fill="white"/>
</g>
<defs>
<filter id="filter0_d_2082_660" x="0" y="0.693359" width="106" height="106" filterUnits="userSpaceOnUse" color-interpolation-filters="sRGB">
<feFlood flood-opacity="0" result="BackgroundImageFix"/>
<feColorMatrix in="SourceAlpha" type="matrix" values="0 0 0 0 0 0 0 0 0 0 0 0 0 0 0 0 0 0 127 0" result="hardAlpha"/>
<feOffset dy="1"/>
<feGaussianBlur stdDeviation="4"/>
<feComposite in2="hardAlpha" operator="out"/>
<feColorMatrix type="matrix" values="0 0 0 0 0 0 0 0 0 0 0 0 0 0 0 0 0 0 0.25 0"/>
<feBlend mode="normal" in2="BackgroundImageFix" result="effect1_dropShadow_2082_660"/>
<feBlend mode="normal" in="SourceGraphic" in2="effect1_dropShadow_2082_660" result="shape"/>
</filter>
</defs>
</svg>
