<svg width="106" height="106" viewBox="0 0 106 106" fill="none" xmlns="http://www.w3.org/2000/svg">
<g filter="url(#filter0_d_2082_663)">
<rect x="8" y="7" width="90" height="90" rx="45" fill="#191717"/>
<path d="M74.4251 26.0657L65.0716 27.7787C60.3722 29.0197 56.0943 31.505 52.6882 34.9729C50.2613 37.6476 48.124 40.5714 46.312 43.6956V43.6956C37.0112 41.8773 26.999 57.1618 26.999 57.1618L38.9873 57.4253L38.6711 58.1105C38.3587 58.7776 38.2643 59.5262 38.4015 60.25C38.5387 60.9738 38.9003 61.636 39.4352 62.1424L40.8316 63.4864L43.4664 66.1217L44.7575 67.3603C45.2957 67.8751 45.9818 68.208 46.7193 68.312C47.4567 68.416 48.2082 68.2859 48.8677 67.94L50.6857 66.9386L51.6869 78.7709C51.6869 78.7709 66.5735 67.9137 64.0968 58.743C66.5263 57.1047 68.8254 55.281 70.9736 53.288C74.5621 49.6939 76.9859 45.1026 77.9294 40.1117L79.6947 31.3363C79.8044 30.7474 79.7956 30.1425 79.6689 29.5571C79.5421 28.9716 79.2999 28.4173 78.9565 27.9266C78.613 27.4358 78.1752 27.0185 77.6686 26.699C77.162 26.3795 76.5968 26.1642 76.006 26.0657C75.4828 25.9768 74.9483 25.9768 74.4251 26.0657V26.0657ZM68.2597 45.0133C67.779 45.512 67.2048 45.9111 66.5697 46.1877C65.9347 46.4643 65.2514 46.613 64.5588 46.6253C63.8663 46.6375 63.1781 46.5131 62.5337 46.2591C61.8893 46.0051 61.3013 45.6265 60.8033 45.145C59.8085 44.1796 59.2341 42.861 59.2045 41.4749C59.1749 40.0889 59.6925 38.747 60.6452 37.7399C61.6249 36.7995 62.9297 36.2736 64.2876 36.272C65.6454 36.2703 66.9515 36.7929 67.9335 37.7309C68.9155 38.6689 69.4976 39.9498 69.5584 41.3066C69.6191 42.6633 69.1539 43.9912 68.2597 45.0133Z" fill="white"/>
</g>
<defs>
<filter id="filter0_d_2082_663" x="0" y="0" width="106" height="106" filterUnits="userSpaceOnUse" color-interpolation-filters="sRGB">
<feFlood flood-opacity="0" result="BackgroundImageFix"/>
<feColorMatrix in="SourceAlpha" type="matrix" values="0 0 0 0 0 0 0 0 0 0 0 0 0 0 0 0 0 0 127 0" result="hardAlpha"/>
<feOffset dy="1"/>
<feGaussianBlur stdDeviation="4"/>
<feComposite in2="hardAlpha" operator="out"/>
<feColorMatrix type="matrix" values="0 0 0 0 0 0 0 0 0 0 0 0 0 0 0 0 0 0 0.25 0"/>
<feBlend mode="normal" in2="BackgroundImageFix" result="effect1_dropShadow_2082_663"/>
<feBlend mode="normal" in="SourceGraphic" in2="effect1_dropShadow_2082_663" result="shape"/>
</filter>
</defs>
</svg>
