<svg width="106" height="106" viewBox="0 0 106 106" fill="none" xmlns="http://www.w3.org/2000/svg">
<g filter="url(#filter0_d_2082_666)">
<rect x="8" y="7" width="90" height="90" rx="45" fill="#191717"/>
<path d="M54.7964 72.7488C54.3694 72.9382 53.9317 73.1023 53.4855 73.2404C52.8881 73.4722 52.2257 73.4722 51.6283 73.2404C47.0946 71.2194 27.7307 61.9881 28.0038 44.6179C28.0094 41.3913 29.0847 38.2577 31.0616 35.7076C33.0384 33.1574 35.8051 31.3349 38.9284 30.5252C41.2621 29.908 43.7061 29.8332 46.0732 30.3066C48.4402 30.78 50.6674 31.789 52.5842 33.2564C54.6657 31.6731 57.1057 30.6279 59.6879 30.2135C62.27 29.799 64.9146 30.028 67.387 30.8803C70.2139 31.8858 72.6644 33.7342 74.4079 36.176C76.1514 38.6179 77.104 41.5358 77.1372 44.536C77.1218 45.5408 77.0489 46.5438 76.9188 47.5403C76.3383 47.2322 75.7358 46.9675 75.1162 46.7482C73.442 46.1613 71.6613 45.9405 69.8945 46.1007C68.1276 46.2609 66.4157 46.7984 64.8744 47.6768C62.0231 46.0309 58.6396 45.5699 55.4519 46.3932C52.983 47.0242 50.7945 48.4593 49.2318 50.4721C47.669 52.4849 46.821 54.9607 46.8215 57.509C46.8826 60.4927 47.6346 63.4217 49.0183 66.0659C50.402 68.7101 52.3798 70.9976 54.7964 72.7488V72.7488ZM64.8744 52.7295L63.6181 51.7736C62.2051 50.6738 60.4652 50.0777 58.6747 50.0802C57.9295 50.0903 57.1877 50.1819 56.4624 50.3534C54.883 50.7916 53.492 51.7381 52.5047 53.0464C51.5173 54.3547 50.9885 55.9519 51.0001 57.5909C50.809 67.6689 62.7168 73.2404 65.1202 74.2509C67.1685 73.4589 78.7759 68.9252 78.7759 57.3997C78.724 55.8958 78.2264 54.4413 77.3463 53.2207C76.4661 52.0002 75.2431 51.0687 73.8326 50.5445C72.5402 50.0835 71.1527 49.9545 69.7975 50.1692C68.4422 50.384 67.1626 50.9356 66.0761 51.7736L64.8744 52.7295Z" fill="white"/>
</g>
<defs>
<filter id="filter0_d_2082_666" x="0" y="0" width="106" height="106" filterUnits="userSpaceOnUse" color-interpolation-filters="sRGB">
<feFlood flood-opacity="0" result="BackgroundImageFix"/>
<feColorMatrix in="SourceAlpha" type="matrix" values="0 0 0 0 0 0 0 0 0 0 0 0 0 0 0 0 0 0 127 0" result="hardAlpha"/>
<feOffset dy="1"/>
<feGaussianBlur stdDeviation="4"/>
<feComposite in2="hardAlpha" operator="out"/>
<feColorMatrix type="matrix" values="0 0 0 0 0 0 0 0 0 0 0 0 0 0 0 0 0 0 0.25 0"/>
<feBlend mode="normal" in2="BackgroundImageFix" result="effect1_dropShadow_2082_666"/>
<feBlend mode="normal" in="SourceGraphic" in2="effect1_dropShadow_2082_666" result="shape"/>
</filter>
</defs>
</svg>
