<svg width="42" height="42" viewBox="0 0 42 42" fill="none" xmlns="http://www.w3.org/2000/svg">
<circle cx="21" cy="21" r="21" fill="#FF8D27"/>
<g clip-path="url(#clip0_1_707)">
<path opacity="0.16" d="M27.9991 19.9998C27.9991 24.4177 24.4177 27.9991 19.9998 27.9991C15.5819 27.9991 12.0005 24.4177 12.0005 19.9998C12.0005 15.5819 15.5819 12.0005 19.9998 12.0005C24.4177 12.0005 27.9991 15.5819 27.9991 19.9998Z" fill="white"/>
<path d="M29.9989 29.9989L25.6561 25.6561M25.6561 25.6561C27.1037 24.2086 27.9991 22.2087 27.9991 19.9998C27.9991 15.5819 24.4177 12.0005 19.9998 12.0005C15.5819 12.0005 12.0005 15.5819 12.0005 19.9998C12.0005 24.4177 15.5819 27.9991 19.9998 27.9991C22.2087 27.9991 24.2086 27.1037 25.6561 25.6561Z" stroke="white" stroke-width="2" stroke-linecap="round" stroke-linejoin="round"/>
<path d="M20 17.0005V23.0005" stroke="white" stroke-width="2" stroke-linecap="round" stroke-linejoin="round"/>
<path d="M17.0005 20H23.0005" stroke="white" stroke-width="2" stroke-linecap="round" stroke-linejoin="round"/>
</g>
<defs>
<clipPath id="clip0_1_707">
<rect width="23.9979" height="23.9979" fill="white" transform="translate(9 9)"/>
</clipPath>
</defs>
</svg>
