<svg width="161" height="33" viewBox="0 0 161 33" fill="none" xmlns="http://www.w3.org/2000/svg">
<g clip-path="url(#clip0_1_719)">
<path d="M30.6667 15.4C30.6667 6.89481 23.8017 0 15.3333 0C6.86497 0 0 6.89481 0 15.4C0 23.9052 6.86497 30.8 15.3333 30.8C23.8017 30.8 30.6667 23.9052 30.6667 15.4Z" fill="black"/>
<path d="M17.2976 8.72475H15.8815C13.2847 8.72475 11.9178 10.0459 11.9178 11.994C11.9178 14.1962 12.8619 15.2302 14.8016 16.5513L16.4039 17.6348L11.7995 24.5461H8.35938L12.4917 18.3641C10.1129 16.6525 8.78104 14.9926 8.78104 12.181C8.78104 8.65765 11.2267 6.25195 15.865 6.25195H20.4694V24.5296H17.2976V8.72475Z" fill="white"/>
<path d="M73.7608 27.7853C74.1321 27.9195 74.7739 28.1219 75.6874 28.1219C78.8636 28.1219 80.1483 25.934 81.9401 21.5945L89.0723 4.40039H85.2521L80.4188 16.7831L75.4168 4.40039H71.1914L78.3575 21.6275C77.6467 23.3435 76.937 24.5205 75.315 24.5205C74.5713 24.5205 74.0993 24.4204 73.7597 24.2862V27.7842L73.7608 27.7853ZM95.1936 28.1219C97.0522 28.1219 98.3697 27.7853 99.3511 27.078V23.8154C98.3369 24.5227 97.1201 24.9594 95.4301 24.9594C92.5562 24.9594 91.3734 22.7396 91.3734 19.2394C91.3734 15.572 92.8267 13.6877 95.4641 13.6877C97.0193 13.6877 98.5395 14.2267 99.3511 14.7316V11.3304C98.5055 10.8596 97.0182 10.523 95.0249 10.523C89.8871 10.523 87.2158 14.1904 87.2158 19.3384C87.2158 24.9913 89.8192 28.1208 95.1936 28.1208V28.1219ZM100.536 24.3192V27.7842C100.536 27.7842 101.178 28.1219 102.124 28.1219C105.572 28.1219 106.45 25.6986 106.654 20.0809L106.891 14.0232H110.98V27.7842H115.002V10.8618H103.477L103.138 19.9126C103.004 23.5129 102.766 24.6239 101.448 24.6239C100.873 24.6239 100.536 24.3192 100.536 24.3192ZM120.555 33.0004C124.307 33.0004 125.693 30.3428 126.843 26.8767L132.149 10.8607H128.262L124.51 23.5789L120.759 10.8607H116.533L122.381 28.5256C121.941 29.333 121.299 29.8379 120.184 29.8379C119.44 29.8379 118.798 29.6025 118.358 29.1647V32.4284C118.358 32.4284 118.967 33.0004 120.555 33.0004ZM133.675 10.8607V27.7853H137.698V14.0243H143.916V10.8596H133.675V10.8607ZM146.284 10.8607V27.7853H149.766L155.985 17.321V27.7853H159.906V10.8607H156.424L150.205 21.325V10.8607H146.284Z" fill="black"/>
<path d="M48.1908 30.8C56.6591 30.8 63.5241 23.9052 63.5241 15.4C63.5241 6.89481 56.6591 0 48.1908 0C39.7224 0 32.8574 6.89481 32.8574 15.4C32.8574 23.9052 39.7224 30.8 48.1908 30.8Z" fill="#242729"/>
<path d="M43.5524 5.3881C41.8877 6.49689 40.7229 8.21763 40.3085 10.1801C39.8941 12.1426 40.2632 14.1901 41.3364 15.8821C42.4097 17.5741 44.1013 18.7754 46.0474 19.2275C47.9935 19.6797 50.0385 19.3466 51.7426 18.2999L62.9293 11.1422C62.1609 8.46837 60.6866 6.05312 58.6627 4.15241C56.6387 2.25169 54.1404 0.936327 51.4326 0.345703L43.5524 5.3881Z" fill="#FF9D7C"/>
<path d="M43.5524 5.3881C41.8877 6.49689 40.7229 8.21763 40.3085 10.1801C39.8941 12.1426 40.2632 14.1901 41.3364 15.8821C42.4097 17.5741 44.1013 18.7754 46.0474 19.2275C47.9935 19.6797 50.0385 19.3466 51.7426 18.2999L62.9293 11.1422C62.1609 8.46837 60.6866 6.05312 58.6627 4.15241C56.6387 2.25169 54.1404 0.936327 51.4326 0.345703L43.5524 5.3881Z" fill="#FF6432"/>
<path d="M43.5524 5.3881C41.8877 6.49689 40.7229 8.21763 40.3085 10.1801C39.8941 12.1426 40.2632 14.1901 41.3364 15.8821C42.4097 17.5741 44.1013 18.7754 46.0474 19.2275C47.9935 19.6797 50.0385 19.3466 51.7426 18.2999L62.9293 11.1422C62.1609 8.46837 60.6866 6.05312 58.6627 4.15241C56.6387 2.25169 54.1404 0.936327 51.4326 0.345703L43.5524 5.3881Z" fill="url(#paint0_radial_1_719)"/>
<path d="M43.5524 5.3881C41.8877 6.49689 40.7229 8.21763 40.3085 10.1801C39.8941 12.1426 40.2632 14.1901 41.3364 15.8821C42.4097 17.5741 44.1013 18.7754 46.0474 19.2275C47.9935 19.6797 50.0385 19.3466 51.7426 18.2999L62.9293 11.1422C62.1609 8.46837 60.6866 6.05312 58.6627 4.15241C56.6387 2.25169 54.1404 0.936327 51.4326 0.345703L43.5524 5.3881Z" fill="url(#paint1_linear_1_719)"/>
<path d="M33.4492 19.6507L44.6404 12.4897C45.4846 11.9496 46.4264 11.5818 47.4122 11.4073C48.3979 11.2327 49.4082 11.2549 50.3854 11.4725C51.3626 11.6901 52.2876 12.0989 53.1075 12.6756C53.9274 13.2522 54.6262 13.9854 55.164 14.8333C55.7017 15.6812 56.068 16.6271 56.2417 17.6171C56.4155 18.6072 56.3934 19.6219 56.1768 20.6033C55.9601 21.5848 55.5531 22.5138 54.9789 23.3372C54.4048 24.1607 53.6748 24.8625 52.8306 25.4026L44.9372 30.4527C42.2303 29.8602 39.7334 28.5434 37.711 26.6418C35.6886 24.7401 34.216 22.3245 33.4492 19.6507Z" fill="#FFE66E"/>
<path d="M33.4492 19.6507L44.6404 12.4897C45.4846 11.9496 46.4264 11.5818 47.4122 11.4073C48.3979 11.2327 49.4082 11.2549 50.3854 11.4725C51.3626 11.6901 52.2876 12.0989 53.1075 12.6756C53.9274 13.2522 54.6262 13.9854 55.164 14.8333C55.7017 15.6812 56.068 16.6271 56.2417 17.6171C56.4155 18.6072 56.3934 19.6219 56.1768 20.6033C55.9601 21.5848 55.5531 22.5138 54.9789 23.3372C54.4048 24.1607 53.6748 24.8625 52.8306 25.4026L44.9372 30.4527C42.2303 29.8602 39.7334 28.5434 37.711 26.6418C35.6886 24.7401 34.216 22.3245 33.4492 19.6507Z" fill="url(#paint2_linear_1_719)"/>
</g>
<defs>
<radialGradient id="paint0_radial_1_719" cx="0" cy="0" r="1" gradientUnits="userSpaceOnUse" gradientTransform="translate(44.6651 21.4569) rotate(-34.9996) scale(18.3867 13.5514)">
<stop stop-color="#CC0700" stop-opacity="0.97"/>
<stop offset="0.067" stop-color="#CC0700" stop-opacity="0.962"/>
<stop offset="0.133" stop-color="#CC0700" stop-opacity="0.936"/>
<stop offset="0.2" stop-color="#CC0700" stop-opacity="0.891"/>
<stop offset="0.267" stop-color="#CC0700" stop-opacity="0.827"/>
<stop offset="0.333" stop-color="#CC0700" stop-opacity="0.745"/>
<stop offset="0.4" stop-color="#CC0700" stop-opacity="0.648"/>
<stop offset="0.467" stop-color="#CC0700" stop-opacity="0.541"/>
<stop offset="0.533" stop-color="#CC0700" stop-opacity="0.429"/>
<stop offset="0.6" stop-color="#CC0700" stop-opacity="0.322"/>
<stop offset="0.667" stop-color="#CC0700" stop-opacity="0.225"/>
<stop offset="0.733" stop-color="#CC0700" stop-opacity="0.143"/>
<stop offset="0.8" stop-color="#CC0700" stop-opacity="0.079"/>
<stop offset="0.867" stop-color="#CC0700" stop-opacity="0.034"/>
<stop offset="0.933" stop-color="#CC0700" stop-opacity="0.01"/>
<stop offset="1" stop-color="#CC0700" stop-opacity="0"/>
</radialGradient>
<linearGradient id="paint1_linear_1_719" x1="45.6498" y1="17.4925" x2="56.3635" y2="-8.25533" gradientUnits="userSpaceOnUse">
<stop stop-color="#FF8140" stop-opacity="0"/>
<stop offset="0.067" stop-color="#FF8140" stop-opacity="0.01"/>
<stop offset="0.133" stop-color="#FF8140" stop-opacity="0.036"/>
<stop offset="0.2" stop-color="#FF8140" stop-opacity="0.082"/>
<stop offset="0.267" stop-color="#FF8140" stop-opacity="0.147"/>
<stop offset="0.333" stop-color="#FF8140" stop-opacity="0.232"/>
<stop offset="0.4" stop-color="#FF8140" stop-opacity="0.332"/>
<stop offset="0.467" stop-color="#FF8140" stop-opacity="0.443"/>
<stop offset="0.533" stop-color="#FF8140" stop-opacity="0.557"/>
<stop offset="0.6" stop-color="#FF8140" stop-opacity="0.668"/>
<stop offset="0.667" stop-color="#FF8140" stop-opacity="0.768"/>
<stop offset="0.733" stop-color="#FF8140" stop-opacity="0.853"/>
<stop offset="0.8" stop-color="#FF8140" stop-opacity="0.918"/>
<stop offset="0.867" stop-color="#FF8140" stop-opacity="0.964"/>
<stop offset="0.933" stop-color="#FF8140" stop-opacity="0.991"/>
<stop offset="1" stop-color="#FF8140"/>
</linearGradient>
<linearGradient id="paint2_linear_1_719" x1="46.108" y1="17.4518" x2="35.9422" y2="31.904" gradientUnits="userSpaceOnUse">
<stop stop-color="#FFD750" stop-opacity="0"/>
<stop offset="1" stop-color="#FFD750"/>
</linearGradient>
<clipPath id="clip0_1_719">
<rect width="161" height="33" fill="white"/>
</clipPath>
</defs>
</svg>
