<svg width="1733" height="743" viewBox="0 0 1733 743" fill="none" xmlns="http://www.w3.org/2000/svg">
<path d="M2 132.13C67.6376 170.834 125.753 221.064 173.554 280.405C286.123 421.43 270.777 533.27 335.369 550.767C435.18 577.793 499.631 318.152 709.479 277.122C863.392 247.009 1020.01 349.325 1056.26 373.031C1197.68 465.404 1216.43 567.749 1317.83 570.47C1392 572.539 1413.91 518.682 1529.91 495.869C1610.66 479.99 1681.34 490.079 1728.98 501.288" stroke="white" stroke-opacity="0.05" stroke-width="5" stroke-miterlimit="10"/>
<path d="M2.06543 169.132C67.7091 207.849 125.833 258.086 173.648 317.431C286.219 458.482 270.871 570.296 335.437 587.795C435.274 614.819 499.725 355.178 709.547 314.15C863.488 284.061 1020.1 386.377 1056.35 410.057C1197.77 502.43 1216.5 604.777 1317.92 607.496C1392.1 609.565 1413.98 555.71 1530 532.895C1610.78 517.014 1681.43 527.105 1729.07 538.314" stroke="white" stroke-opacity="0.05" stroke-width="3" stroke-miterlimit="10"/>
<path d="M2.13086 203.59C67.7806 242.299 125.906 292.537 173.713 351.889C286.285 492.94 270.936 604.754 335.528 622.251C435.261 649.283 499.816 389.633 709.638 348.606C863.553 318.519 1020.17 420.835 1056.42 444.515C1197.84 536.914 1216.59 639.233 1317.99 641.954C1392.16 644.023 1414.07 590.14 1530.06 567.327C1610.84 551.446 1681.5 561.537 1729.13 572.746" stroke="white" stroke-opacity="0.05" stroke-miterlimit="10"/>
</svg>
