<svg width="135" height="95" viewBox="0 0 135 95" fill="none" xmlns="http://www.w3.org/2000/svg">
<mask id="mask0_2036_1463" style="mask-type:alpha" maskUnits="userSpaceOnUse" x="0" y="0" width="135" height="95">
<rect width="135" height="95" fill="#FF8D27"/>
</mask>
<g mask="url(#mask0_2036_1463)">
<rect x="-122" y="-13.293" width="2" height="353" transform="rotate(-45 -122 -13.293)" fill="white" fill-opacity="0.11"/>
<rect x="-113.977" y="-13.293" width="2" height="353" transform="rotate(-45 -113.977 -13.293)" fill="white" fill-opacity="0.11"/>
<rect x="-105.953" y="-13.293" width="2" height="353" transform="rotate(-45 -105.953 -13.293)" fill="white" fill-opacity="0.11"/>
<rect x="-97.9297" y="-13.293" width="2" height="353" transform="rotate(-45 -97.9297 -13.293)" fill="white" fill-opacity="0.11"/>
<rect x="-89.9062" y="-13.293" width="2" height="353" transform="rotate(-45 -89.9062 -13.293)" fill="white" fill-opacity="0.11"/>
<rect x="-81.8828" y="-13.293" width="2" height="353" transform="rotate(-45 -81.8828 -13.293)" fill="white" fill-opacity="0.11"/>
<rect x="-73.8594" y="-13.293" width="2" height="353" transform="rotate(-45 -73.8594 -13.293)" fill="white" fill-opacity="0.11"/>
<rect x="-65.8359" y="-13.293" width="2" height="353" transform="rotate(-45 -65.8359 -13.293)" fill="white" fill-opacity="0.11"/>
<rect x="-57.8125" y="-13.293" width="2" height="353" transform="rotate(-45 -57.8125 -13.293)" fill="white" fill-opacity="0.11"/>
<rect x="-49.7891" y="-13.293" width="2" height="353" transform="rotate(-45 -49.7891 -13.293)" fill="white" fill-opacity="0.11"/>
<rect x="-41.7656" y="-13.293" width="2" height="353" transform="rotate(-45 -41.7656 -13.293)" fill="white" fill-opacity="0.11"/>
<rect x="-33.7422" y="-13.293" width="2" height="353" transform="rotate(-45 -33.7422 -13.293)" fill="white" fill-opacity="0.11"/>
<rect x="-25.7188" y="-13.293" width="2" height="353" transform="rotate(-45 -25.7188 -13.293)" fill="white" fill-opacity="0.11"/>
<rect x="-17.6953" y="-13.293" width="2" height="353" transform="rotate(-45 -17.6953 -13.293)" fill="white" fill-opacity="0.11"/>
<rect x="-9.67188" y="-13.293" width="2" height="353" transform="rotate(-45 -9.67188 -13.293)" fill="white" fill-opacity="0.11"/>
<rect x="-1.64844" y="-13.293" width="2" height="353" transform="rotate(-45 -1.64844 -13.293)" fill="white" fill-opacity="0.11"/>
<rect x="6.375" y="-13.293" width="2" height="353" transform="rotate(-45 6.375 -13.293)" fill="white" fill-opacity="0.11"/>
<rect x="14.3984" y="-13.293" width="2" height="353" transform="rotate(-45 14.3984 -13.293)" fill="white" fill-opacity="0.11"/>
<rect x="22.4219" y="-13.293" width="2" height="353" transform="rotate(-45 22.4219 -13.293)" fill="white" fill-opacity="0.11"/>
<rect x="30.4453" y="-13.293" width="2" height="353" transform="rotate(-45 30.4453 -13.293)" fill="white" fill-opacity="0.11"/>
<rect x="38.4688" y="-13.293" width="2" height="353" transform="rotate(-45 38.4688 -13.293)" fill="white" fill-opacity="0.11"/>
<rect x="46.4922" y="-13.293" width="2" height="353" transform="rotate(-45 46.4922 -13.293)" fill="white" fill-opacity="0.11"/>
<rect x="54.5156" y="-13.293" width="2" height="353" transform="rotate(-45 54.5156 -13.293)" fill="white" fill-opacity="0.11"/>
<rect x="62.5391" y="-13.293" width="2" height="353" transform="rotate(-45 62.5391 -13.293)" fill="white" fill-opacity="0.11"/>
<rect x="70.5625" y="-13.293" width="2" height="353" transform="rotate(-45 70.5625 -13.293)" fill="white" fill-opacity="0.11"/>
<rect x="78.5859" y="-13.293" width="2" height="353" transform="rotate(-45 78.5859 -13.293)" fill="white" fill-opacity="0.11"/>
<rect x="86.6094" y="-13.293" width="2" height="353" transform="rotate(-45 86.6094 -13.293)" fill="white" fill-opacity="0.11"/>
<rect x="94.6328" y="-13.293" width="2" height="353" transform="rotate(-45 94.6328 -13.293)" fill="white" fill-opacity="0.11"/>
<rect x="102.656" y="-13.293" width="2" height="353" transform="rotate(-45 102.656 -13.293)" fill="white" fill-opacity="0.11"/>
<rect x="110.68" y="-13.293" width="2" height="353" transform="rotate(-45 110.68 -13.293)" fill="white" fill-opacity="0.11"/>
<rect x="118.703" y="-13.293" width="2" height="353" transform="rotate(-45 118.703 -13.293)" fill="white" fill-opacity="0.11"/>
<rect x="126.727" y="-13.293" width="2" height="353" transform="rotate(-45 126.727 -13.293)" fill="white" fill-opacity="0.11"/>
<rect x="134.75" y="-13.293" width="2" height="353" transform="rotate(-45 134.75 -13.293)" fill="white" fill-opacity="0.11"/>
</g>
</svg>
